<svg xmlns="http://www.w3.org/2000/svg" xmlns:xlink="http://www.w3.org/1999/xlink" xmlns:lucid="lucid" width="1183" height="1038"><g transform="translate(-121 -66)" lucid:page-tab-id=".Q4MUjXso07N"><path d="M0 0h1360v1760H0z" fill="#fff"/><path d="M402.78 265a5 5 0 0 1 5-5h543.54a5 5 0 0 1 5 5v730a5 5 0 0 1-5 5H407.78a5 5 0 0 1-5-5z" stroke="#333" fill-opacity="0"/><use xlink:href="#a" transform="matrix(1,0,0,1,410.7771404371331,268) translate(238.78395061728395 15.11111111111111)"/><use xlink:href="#b" transform="matrix(1,0,0,1,410.7771404371331,268) translate(269.58641975308643 15.11111111111111)"/><path d="M312.9 722.4c0 10.92-8.85 19.76-19.75 19.76s-19.75-8.84-19.75-19.75c0-10.9 8.84-19.74 19.75-19.74 10.9 0 19.75 8.84 19.75 19.75z" stroke="#a9afb8" stroke-width="4" fill="#fff"/><path d="M293.15 742.16v50.3a17.25 17.25 0 0 0 2.67 9.23l37.33 58.96m-40-63.2l-40 63.2m0-98.75h80" stroke="#a9afb8" stroke-width="4" fill="none"/><path d="M253.15 707.66a5 5 0 0 1 5-5h70a5 5 0 0 1 5 5v170a5 5 0 0 1-5 5h-70a5 5 0 0 1-5-5z" fill="none"/><use xlink:href="#c" transform="matrix(1,0,0,1,173.14655278534315,860.6613984082094) translate(81.55555555555554 14.888888888888888)"/><path d="M1086.6 129.9c0 10.9-8.84 19.76-19.75 19.76-10.9 0-19.75-8.85-19.75-19.75s8.85-19.74 19.75-19.74 19.75 8.84 19.75 19.75z" stroke="#a9afb8" stroke-width="4" fill="#fff"/><path d="M1066.85 149.66v50.3a17.25 17.25 0 0 0 2.68 9.22l37.32 58.98m-40-63.2l-40 63.2m0-98.75h80" stroke="#a9afb8" stroke-width="4" fill="none"/><path d="M1026.85 115.16a5 5 0 0 1 5-5h70a5 5 0 0 1 5 5v170a5 5 0 0 1-5 5h-70a5 5 0 0 1-5-5z" fill="none"/><use xlink:href="#d" transform="matrix(1,0,0,1,946.8534472146569,268.1552239566152) translate(33.40740740740742 14.888888888888888)"/><use xlink:href="#e" transform="matrix(1,0,0,1,946.8534472146569,268.1552239566152) translate(128.76543209876544 14.888888888888888)"/><path d="M753.9 595.5c0 30.65-43.42 55.5-96.96 55.5-53.54 0-96.94-24.85-96.94-55.5s43.4-55.5 96.94-55.5 96.95 24.85 96.95 55.5z" stroke="#fff" fill="#bb4a4a"/><use xlink:href="#f" transform="matrix(1,0,0,1,589.0831134591465,562.1997926651069) translate(0 17.77777777777778)"/><use xlink:href="#g" transform="matrix(1,0,0,1,589.0831134591465,562.1997926651069) translate(0 44.44444444444444)"/><use xlink:href="#h" transform="matrix(1,0,0,1,589.0831134591465,562.1997926651069) translate(93.76543209876542 44.44444444444444)"/><use xlink:href="#i" transform="matrix(1,0,0,1,589.0831134591465,562.1997926651069) translate(0 71.11111111111111)"/><path d="M892.58 735.07c0 33.14-47.6 60-106.3 60-58.7 0-106.28-26.86-106.28-60 0-33.13 47.6-60 106.3-60 58.7 0 106.28 26.87 106.28 60z" stroke="#fff" fill="#bb4a4a"/><use xlink:href="#j" transform="matrix(1,0,0,1,711.8873189910258,699.0742918009379) translate(0 17.77777777777778)"/><use xlink:href="#k" transform="matrix(1,0,0,1,711.8873189910258,699.0742918009379) translate(53.0246913580247 17.77777777777778)"/><use xlink:href="#l" transform="matrix(1,0,0,1,711.8873189910258,699.0742918009379) translate(77.71604938271605 17.77777777777778)"/><use xlink:href="#m" transform="matrix(1,0,0,1,711.8873189910258,699.0742918009379) translate(119.69135802469137 17.77777777777778)"/><use xlink:href="#n" transform="matrix(1,0,0,1,711.8873189910258,699.0742918009379) translate(0 44.44444444444444)"/><use xlink:href="#o" transform="matrix(1,0,0,1,711.8873189910258,699.0742918009379) translate(93.64197530864197 44.44444444444444)"/><use xlink:href="#p" transform="matrix(1,0,0,1,711.8873189910258,699.0742918009379) translate(0 71.11111111111111)"/><use xlink:href="#q" transform="matrix(1,0,0,1,711.8873189910258,699.0742918009379) translate(37.03703703703704 71.11111111111111)"/><path d="M912.58 480c0 33.14-59.86 60-133.7 60-73.85 0-133.72-26.86-133.72-60s59.87-60 133.7-60c73.86 0 133.72 26.86 133.72 60z" stroke="#fff" fill="#bb4a4a"/><use xlink:href="#r" transform="matrix(1,0,0,1,685.2769342226521,444) translate(0 17.77777777777778)"/><use xlink:href="#s" transform="matrix(1,0,0,1,685.2769342226521,444) translate(0 44.44444444444444)"/><use xlink:href="#t" transform="matrix(1,0,0,1,685.2769342226521,444) translate(91.29629629629629 44.44444444444444)"/><use xlink:href="#u" transform="matrix(1,0,0,1,685.2769342226521,444) translate(141.79012345679013 44.44444444444444)"/><use xlink:href="#q" transform="matrix(1,0,0,1,685.2769342226521,444) translate(0 71.11111111111111)"/><path d="M746.1 880c0 33.14-59.56 60-133.04 60-73.5 0-133.06-26.86-133.06-60s59.57-60 133.06-60c73.48 0 133.05 26.86 133.05 60z" stroke="#fff" fill="#bb4a4a"/><use xlink:href="#v" transform="matrix(1,0,0,1,519.9168865408535,844.0000000000001) translate(0 16.000000000000007)"/><use xlink:href="#w" transform="matrix(1,0,0,1,519.9168865408535,844.0000000000001) translate(77.7222222222222 16.000000000000007)"/><use xlink:href="#x" transform="matrix(1,0,0,1,519.9168865408535,844.0000000000001) translate(0 40)"/><use xlink:href="#y" transform="matrix(1,0,0,1,519.9168865408535,844.0000000000001) translate(69.88888888888887 40)"/><use xlink:href="#z" transform="matrix(1,0,0,1,519.9168865408535,844.0000000000001) translate(167.6111111111111 40)"/><use xlink:href="#A" transform="matrix(1,0,0,1,519.9168865408535,844.0000000000001) translate(0 64)"/><use xlink:href="#B" transform="matrix(1,0,0,1,519.9168865408535,844.0000000000001) translate(72.1111111111111 64)"/><path d="M1016.62 836a16 16 0 0 1 16-16h208a16 16 0 0 1 16 16v148a16 16 0 0 1-16 16h-208a16 16 0 0 1-16-16z" stroke="#4c535d" stroke-width="2" fill="#fff"/><path d="M1072.62 893.6c0 6.63-5.37 12-12 12s-12-5.37-12-12 5.37-12 12-12 12 5.37 12 12z" stroke="#000" stroke-opacity=".25" fill="#bb4a4a"/><path d="M1072.62 925.6c0 6.63-5.37 12-12 12s-12-5.37-12-12 5.37-12 12-12 12 5.37 12 12z" stroke="#000" stroke-opacity=".25" fill="#a9afb8"/><use xlink:href="#C" transform="matrix(1,0,0,1,1048.6191324359606,844.0000000000001) translate(0 14.6)"/><use xlink:href="#D" transform="matrix(1,0,0,1,1048.6191324359606,844.0000000000001) translate(76.9 14.6)"/><use xlink:href="#E" transform="matrix(1,0,0,1,1084.6191324359606,881.6000000000001) translate(0 14.8)"/><use xlink:href="#F" transform="matrix(1,0,0,1,1084.6191324359606,881.6000000000001) translate(28.73888888888889 14.8)"/><use xlink:href="#G" transform="matrix(1,0,0,1,1084.6191324359606,913.6000000000001) translate(0 14.8)"/><path d="M1093.28 539.75c0 10.9-8.84 19.75-19.75 19.75-10.9 0-19.75-8.84-19.75-19.75 0-10.9 8.84-19.75 19.75-19.75 10.9 0 19.75 8.84 19.75 19.75z" stroke="#a9afb8" stroke-width="4" fill="#fff"/><path d="M1073.53 559.5v50.3a17.25 17.25 0 0 0 2.67 9.22l37.33 58.98m-40-63.2l-40 63.2m0-98.75h80" stroke="#a9afb8" stroke-width="4" fill="none"/><path d="M1033.53 525a5 5 0 0 1 5-5h70a5 5 0 0 1 5 5v170a5 5 0 0 1-5 5h-70a5 5 0 0 1-5-5z" fill="none"/><use xlink:href="#H" transform="matrix(1,0,0,1,953.530450332184,678) translate(38.617283950617264 14.888888888888888)"/><use xlink:href="#I" transform="matrix(1,0,0,1,953.530450332184,678) translate(114.46913580246914 14.888888888888888)"/><path d="M306.22 480.82c0 10.9-8.84 19.75-19.75 19.75-10.9 0-19.75-8.84-19.75-19.75 0-10.9 8.84-19.75 19.75-19.75 10.9 0 19.75 8.84 19.75 19.75z" stroke="#a9afb8" stroke-width="4" fill="#fff"/><path d="M286.47 500.57v50.3a17.25 17.25 0 0 0 2.67 9.22l37.33 58.97m-40-63.2l-40 63.2m0-98.75h80" stroke="#a9afb8" stroke-width="4" fill="none"/><path d="M246.47 466.07a5 5 0 0 1 5-5h70a5 5 0 0 1 5 5v170a5 5 0 0 1-5 5h-70a5 5 0 0 1-5-5z" fill="none"/><use xlink:href="#J" transform="matrix(1,0,0,1,166.46954966781595,619.0683800947959) translate(97.35802469135803 14.888888888888888)"/><path d="M306.22 239.23c0 10.9-8.84 19.75-19.75 19.75-10.9 0-19.75-8.85-19.75-19.75s8.84-19.75 19.75-19.75c10.9 0 19.75 8.84 19.75 19.75z" stroke="#a9afb8" stroke-width="4" fill="#fff"/><path d="M286.47 258.98v50.3a17.25 17.25 0 0 0 2.67 9.22l37.33 58.98m-40-63.2l-40 63.2m0-98.75h80" stroke="#a9afb8" stroke-width="4" fill="none"/><path d="M246.47 224.48a5 5 0 0 1 5-5h70a5 5 0 0 1 5 5v170a5 5 0 0 1-5 5h-70a5 5 0 0 1-5-5z" fill="none"/><use xlink:href="#K" transform="matrix(1,0,0,1,166.46954966781595,377.4753617813824) translate(91.72222222222224 14.000000000000004)"/><path d="M295.65 792.66h79.68a12 12 0 0 1 12 12V868a12 12 0 0 0 12 12H479M295.67 792.66h-3.52" stroke="#333" fill="none"/><path d="M479.5 880v.5h-.5v-1h.5z" stroke="#333" stroke-width=".05" fill="#333"/><use xlink:href="#L" transform="matrix(1,0,0,1,336.1059424626294,770.579400631806) translate(0.0049999999999954525 14.222222222222223)"/><use xlink:href="#M" transform="matrix(1,0,0,1,336.1059424626294,770.579400631806) translate(17.73339506172839 14.222222222222223)"/><use xlink:href="#N" transform="matrix(1,0,0,1,336.1059424626294,770.579400631806) translate(75.95561728395062 14.222222222222223)"/><use xlink:href="#O" transform="matrix(1,0,0,1,336.1059424626294,770.579400631806) translate(137.1408024691358 14.222222222222223)"/><use xlink:href="#P" transform="matrix(1,0,0,1,336.1059424626294,770.579400631806) translate(156.89388888888888 14.222222222222223)"/><path d="M287.47 540H308a12 12 0 0 0 12-12v-36a12 12 0 0 1 12-12h312.16M287.48 540h-3.5" stroke="#333" fill="none"/><path d="M644.66 480v.5h-.5v-1h.5z" stroke="#333" stroke-width=".05" fill="#333"/><path d="M286.97 540.5v7.5a12 12 0 0 0 12 12H507.5a12 12 0 0 1 12 12v11.5a12 12 0 0 0 12 12H559M286.97 540.5v-.5" stroke="#333" fill="none"/><path d="M559.5 595.5v.5h-.5v-1h.5z" stroke="#333" stroke-width=".05" fill="#333"/><path d="M287.47 540h188.26a7.5 7.5 0 0 1 7.5 7.5v7.5c-2.76 0-5 2.24-5 5s2.24 5 5 5v158.07a12 12 0 0 0 12 12H679M287.48 540h-3.5" stroke="#333" fill="none"/><path d="M679.5 735.07v.5h-.5v-1h.5z" stroke="#333" stroke-width=".05" fill="#333"/><path d="M853.35 347.54c0 20.73-38.8 37.54-86.67 37.54-47.87 0-86.68-16.8-86.68-37.54 0-20.73 38.8-37.54 86.68-37.54 47.87 0 86.67 16.8 86.67 37.54z" stroke="#fff" fill="#bb4a4a"/><g><use xlink:href="#Q" transform="matrix(1,0,0,1,706.0031643750596,325.0152419542167) translate(0 17.77777777777778)"/><use xlink:href="#R" transform="matrix(1,0,0,1,706.0031643750596,325.0152419542167) translate(101.11111111111111 17.77777777777778)"/><use xlink:href="#S" transform="matrix(1,0,0,1,706.0031643750596,325.0152419542167) translate(0 44.44444444444444)"/></g><path d="M633.35 309.48c0 20.73-38.8 37.54-86.67 37.54-47.87 0-86.68-16.8-86.68-37.54s38.8-37.55 86.68-37.55c47.87 0 86.67 16.8 86.67 37.55z" stroke="#fff" fill="#bb4a4a"/><g><use xlink:href="#T" transform="matrix(1,0,0,1,486.0031643750595,286.9509438382824) translate(0 27.444444444444443)"/><use xlink:href="#U" transform="matrix(1,0,0,1,486.0031643750595,286.9509438382824) translate(70.30864197530863 27.444444444444443)"/></g><path d="M287.47 298.4h27.5a12 12 0 0 0 12-12v-41.43a12 12 0 0 1 12-12h171.1a12 12 0 0 1 12 12v27.5M287.48 298.4h-3.5" stroke="#333" fill="none"/><path d="M522.56 272.92l-.8.08-.2.04v-.58h1z" stroke="#333" stroke-width=".05" fill="#333"/><path d="M288.98 309.48H358a12 12 0 0 0 12-12v-59.5c-2.76 0-5-2.24-5-5 0-2.77 2.24-5 5-5v-36.5a12 12 0 0 1 12-12h372.68a12 12 0 0 1 12 12V309M289 309.48h-3.52" stroke="#333" fill="none"/><path d="M767.18 309.5h-1v-.5h1zM854.7 687.9h-1l.14-488h1zm211.15-498.3H949.42v-1h116.43z" stroke="#333" stroke-width=".05" fill="#333"/><path d="M1069.35 189.6h-3.5v-1h3.5z" stroke="#333" stroke-width=".05" fill="#333"/><path d="M854.7 688.63l-1-.48v-.28h1z" fill="#333"/><path d="M854.72 688.67l-1.05-.5v-.32h1.05zm-1-.77v.23l.95.46v-.7z" stroke="#333" stroke-width=".05" fill="#333"/><g><use xlink:href="#V" transform="matrix(1,0,0,1,817.6174597930404,178.28685384761764) translate(0.0049999999999954525 14.4)"/><use xlink:href="#W" transform="matrix(1,0,0,1,817.6174597930404,178.28685384761764) translate(77.905 14.4)"/></g><path d="M990.22 468.02l-.15 1.94-.46 1.9-.74 1.82-1.03 1.67-1.27 1.5-1.5 1.26-1.67 1.04-1.82.75-1.93.45-66.07.15v-1l65.96-.15 1.73-.4 1.67-.7 1.54-.95 1.37-1.17 1.17-1.37.94-1.54.7-1.67.4-1.75.16-1.82.07-122.64h1zm75.63-278.43h-64.1l-1.83.13-1.76.42-1.66.7-1.54.93-1.37 1.18-1.18 1.37-.95 1.54-.7 1.66-.4 1.74-.07 124.47h-1l.07-124.6.46-1.92.75-1.8 1.02-1.68 1.28-1.5 1.5-1.27 1.66-1.02 1.8-.75 1.92-.46 1.94-.15h64.15zM1069.35 189.6h-3.5v-1h3.5z" stroke="#333" stroke-width=".05" fill="#333"/><path d="M913.6 480.5h-.53v-1h.52z" fill="#333"/><path d="M913.62 480.52h-.57v-1.04h.57zm-.52-1v.96h.47v-.96z" stroke="#333" stroke-width=".05" fill="#333"/><g><use xlink:href="#X" transform="matrix(1,0,0,1,868.3928004047243,323.74342692380884) translate(0.0049999999999954525 14.4)"/><use xlink:href="#Y" transform="matrix(1,0,0,1,868.3928004047243,323.74342692380884) translate(13.954999999999995 14.4)"/><use xlink:href="#Z" transform="matrix(1,0,0,1,868.3928004047243,323.74342692380884) translate(62.905 14.4)"/><use xlink:href="#aa" transform="matrix(1,0,0,1,868.3928004047243,323.74342692380884) translate(138.85500000000002 14.4)"/><use xlink:href="#ab" transform="matrix(1,0,0,1,868.3928004047243,323.74342692380884) translate(181.805 14.4)"/></g><path d="M1072.53 598.93H922a12 12 0 0 0-12 12V868a12 12 0 0 1-12 12H747.1M1072.52 598.93h3.5" stroke="#333" fill="none"/><path d="M747.13 880.5h-.53v-1h.53z" stroke="#333" stroke-width=".05" fill="#333"/><defs><path fill="#333" d="M6 0l48-248h52L58 0H6" id="ac"/><path fill="#333" d="M212 0l43-212L151 0h-37L90-212C82-137 65-70 52 0H6l48-248h70l20 187 93-187h69L258 0h-46" id="ad"/><g id="a"><use transform="matrix(0.06172839506172839,0,0,0.06172839506172839,0,0)" xlink:href="#ac"/><use transform="matrix(0.06172839506172839,0,0,0.06172839506172839,6.172839506172839,0)" xlink:href="#ad"/></g><path fill="#333" d="M178-136c88 48 22 151-73 140C49-3 12-15 4-64l51-9c1 50 111 53 115 3-16-63-132-20-133-112 0-93 190-91 199-10l-50 12c-4-41-93-50-97-4 7 38 59 32 89 48" id="ae"/><path fill="#333" d="M6 0l48-248h195l-8 40H98l-12 63h132l-7 40H79L66-40h150l-8 40H6" id="af"/><g id="b"><use transform="matrix(0.06172839506172839,0,0,0.06172839506172839,0,0)" xlink:href="#ae"/><use transform="matrix(0.06172839506172839,0,0,0.06172839506172839,14.814814814814813,0)" xlink:href="#af"/></g><path fill="#333" d="M125-24c46 0 70-25 89-51l25 16C214-24 183 4 123 4 8 4-5-146 60-208c32-50 158-61 191-5 5 7 9 14 11 22l-32 10c-9-28-33-43-69-43-74 0-108 51-108 125 0 46 24 75 72 75" id="ag"/><path fill="#333" d="M67 3c-93-2-31-127-26-193h32L48-50c-3 39 53 32 70 12 30-34 30-101 43-152h32L157 0h-30c1-10 6-24 4-33-14 20-29 37-64 36" id="ah"/><path fill="#333" d="M55-144c13 50 104 24 104 88C159 21 15 23 1-39l26-10c6 40 102 42 102-4-13-50-104-23-104-87 0-71 143-71 148-8l-29 4c-5-35-85-37-89 0" id="ai"/><path fill="#333" d="M51-54c-9 22 5 41 31 30L79-1C43 14 10-4 19-52l22-115H19l5-23h22l19-43h21l-9 43h35l-4 23H73" id="aj"/><path fill="#333" d="M30-147c31-64 166-65 159 27C183-49 158 1 86 4 9 8 1-88 30-147zM88-20c53 0 68-48 68-100 0-31-11-51-44-50-52 1-68 46-68 97 0 32 13 53 44 53" id="ak"/><path fill="#333" d="M248-111c6-24 9-61-24-58-72 9-57 108-77 169h-31l26-142c3-37-50-30-64-10C52-115 50-51 37 0H6l36-190h30c-1 10-6 24-4 32 13-43 101-52 105 5 13-22 29-41 61-41 90 0 28 129 23 194h-31" id="al"/><path fill="#333" d="M111-194c62-3 86 47 72 106H45c-7 38 6 69 45 68 27-1 43-14 53-32l24 11C152-15 129 4 87 4 38 3 12-23 12-71c0-70 32-119 99-123zm44 81c14-66-71-72-95-28-4 8-8 17-11 28h106" id="am"/><path fill="#333" d="M66-151c12-25 30-51 66-40l-6 26C45-176 58-65 38 0H6l36-190h30" id="an"/><g id="c"><use transform="matrix(0.04938271604938272,0,0,0.04938271604938272,0,0)" xlink:href="#ag"/><use transform="matrix(0.04938271604938272,0,0,0.04938271604938272,12.790123456790125,0)" xlink:href="#ah"/><use transform="matrix(0.04938271604938272,0,0,0.04938271604938272,22.66666666666667,0)" xlink:href="#ai"/><use transform="matrix(0.04938271604938272,0,0,0.04938271604938272,31.555555555555557,0)" xlink:href="#aj"/><use transform="matrix(0.04938271604938272,0,0,0.04938271604938272,36.49382716049384,0)" xlink:href="#ak"/><use transform="matrix(0.04938271604938272,0,0,0.04938271604938272,46.37037037037038,0)" xlink:href="#al"/><use transform="matrix(0.04938271604938272,0,0,0.04938271604938272,61.13580246913581,0)" xlink:href="#am"/><use transform="matrix(0.04938271604938272,0,0,0.04938271604938272,71.01234567901236,0)" xlink:href="#an"/></g><path fill="#333" d="M247 0h-39l-15-214-24 57L95 0H56L31-248h35L82-30l101-218h33l16 218 101-218h35" id="ao"/><path fill="#333" d="M165-48c-4 18 1 34 23 27l-3 20c-29 8-62 0-52-35h-2C116-14 99 4 63 4 30 4 8-16 8-49c0-68 71-67 138-67 10-26 0-56-31-54-26 1-42 9-47 31l-32-5c8-67 160-71 144 15-5 28-9 54-15 81zM42-50c3 52 80 24 89-6 7-12 7-24 11-38-47 1-103-4-100 44" id="ap"/><path fill="#333" d="M67-158c15-20 31-36 64-36 94 0 33 127 27 194h-32l25-140c3-38-53-32-70-12C52-117 51-51 37 0H6l51-261h31" id="aq"/><g id="d"><use transform="matrix(0.04938271604938272,0,0,0.04938271604938272,0,0)" xlink:href="#ao"/><use transform="matrix(0.04938271604938272,0,0,0.04938271604938272,16.39506172839506,0)" xlink:href="#ap"/><use transform="matrix(0.04938271604938272,0,0,0.04938271604938272,26.271604938271608,0)" xlink:href="#an"/><use transform="matrix(0.04938271604938272,0,0,0.04938271604938272,32.148148148148145,0)" xlink:href="#am"/><use transform="matrix(0.04938271604938272,0,0,0.04938271604938272,42.02469135802469,0)" xlink:href="#aq"/><use transform="matrix(0.04938271604938272,0,0,0.04938271604938272,51.90123456790124,0)" xlink:href="#ak"/><use transform="matrix(0.04938271604938272,0,0,0.04938271604938272,61.777777777777786,0)" xlink:href="#ah"/><use transform="matrix(0.04938271604938272,0,0,0.04938271604938272,71.65432098765433,0)" xlink:href="#ai"/><use transform="matrix(0.04938271604938272,0,0,0.04938271604938272,80.54320987654322,0)" xlink:href="#am"/></g><path fill="#333" d="M6 0l50-261h32L37 0H6" id="ar"/><path fill="#333" d="M103-194c29 0 47 14 56 36 2-11 5-23 8-32h30L160-5C157 61 82 97 21 62 9 55 4 45 1 30l28-7c7 42 83 31 92-3 4-16 9-38 13-55-13 20-29 36-62 36-40 0-60-25-60-64 0-71 23-131 91-131zm4 24c-53 0-58 54-61 104-2 27 10 44 36 44 49 0 65-50 67-102 1-29-15-46-42-46" id="as"/><path fill="#333" d="M50-231l6-30h32l-6 30H50zM6 0l37-190h31L37 0H6" id="at"/><path fill="#333" d="M44-68c0 29 11 47 38 47 30 0 42-19 51-41l28 9C148-21 126 4 82 4 31 4 10-29 12-85c3-77 74-140 146-93 12 8 15 23 18 40l-31 5c-1-22-13-36-36-36-52 0-65 49-65 101" id="au"/><path fill="#333" d="M67-158c22-48 132-52 116 29L158 0h-32l25-140c3-38-53-32-70-12C52-117 51-52 38 0H6l36-190h30" id="av"/><g id="e"><use transform="matrix(0.04938271604938272,0,0,0.04938271604938272,0,0)" xlink:href="#ar"/><use transform="matrix(0.04938271604938272,0,0,0.04938271604938272,3.901234567901235,0)" xlink:href="#ak"/><use transform="matrix(0.04938271604938272,0,0,0.04938271604938272,13.777777777777779,0)" xlink:href="#as"/><use transform="matrix(0.04938271604938272,0,0,0.04938271604938272,23.654320987654323,0)" xlink:href="#at"/><use transform="matrix(0.04938271604938272,0,0,0.04938271604938272,27.555555555555557,0)" xlink:href="#ai"/><use transform="matrix(0.04938271604938272,0,0,0.04938271604938272,36.44444444444444,0)" xlink:href="#aj"/><use transform="matrix(0.04938271604938272,0,0,0.04938271604938272,41.382716049382715,0)" xlink:href="#at"/><use transform="matrix(0.04938271604938272,0,0,0.04938271604938272,45.28395061728395,0)" xlink:href="#au"/><use transform="matrix(0.04938271604938272,0,0,0.04938271604938272,54.172839506172835,0)" xlink:href="#at"/><use transform="matrix(0.04938271604938272,0,0,0.04938271604938272,58.07407407407407,0)" xlink:href="#ap"/><use transform="matrix(0.04938271604938272,0,0,0.04938271604938272,67.9506172839506,0)" xlink:href="#av"/></g><path fill="#fff" d="M210-169c-67 3-38 105-44 169h-31v-121c0-29-5-50-35-48C34-165 62-65 56 0H25l-1-190h30c1 10-1 24 2 32 10-44 99-50 107 0 11-21 27-35 58-36 85-2 47 119 55 194h-31v-121c0-29-5-49-35-48" id="aw"/><path fill="#fff" d="M141-36C126-15 110 5 73 4 37 3 15-17 15-53c-1-64 63-63 125-63 3-35-9-54-41-54-24 1-41 7-42 31l-33-3c5-37 33-52 76-52 45 0 72 20 72 64v82c-1 20 7 32 28 27v20c-31 9-61-2-59-35zM48-53c0 20 12 33 32 33 41-3 63-29 60-74-43 2-92-5-92 41" id="ax"/><path fill="#fff" d="M114-163C36-179 61-72 57 0H25l-1-190h30c1 12-1 29 2 39 6-27 23-49 58-41v29" id="ay"/><path fill="#fff" d="M143 0L79-87 56-68V0H24v-261h32v163l83-92h37l-77 82L181 0h-38" id="az"/><path fill="#fff" d="M24-231v-30h32v30H24zM24 0v-190h32V0H24" id="aA"/><path fill="#fff" d="M117-194c89-4 53 116 60 194h-32v-121c0-31-8-49-39-48C34-167 62-67 57 0H25l-1-190h30c1 10-1 24 2 32 11-22 29-35 61-36" id="aB"/><path fill="#fff" d="M177-190C167-65 218 103 67 71c-23-6-38-20-44-43l32-5c15 47 100 32 89-28v-30C133-14 115 1 83 1 29 1 15-40 15-95c0-56 16-97 71-98 29-1 48 16 59 35 1-10 0-23 2-32h30zM94-22c36 0 50-32 50-73 0-42-14-75-50-75-39 0-46 34-46 75s6 73 46 73" id="aC"/><g id="f"><use transform="matrix(0.06172839506172839,0,0,0.06172839506172839,0,0)" xlink:href="#aw"/><use transform="matrix(0.06172839506172839,0,0,0.06172839506172839,18.456790123456788,0)" xlink:href="#ax"/><use transform="matrix(0.06172839506172839,0,0,0.06172839506172839,30.80246913580247,0)" xlink:href="#ay"/><use transform="matrix(0.06172839506172839,0,0,0.06172839506172839,38.148148148148145,0)" xlink:href="#az"/><use transform="matrix(0.06172839506172839,0,0,0.06172839506172839,49.25925925925925,0)" xlink:href="#aA"/><use transform="matrix(0.06172839506172839,0,0,0.06172839506172839,54.1358024691358,0)" xlink:href="#aB"/><use transform="matrix(0.06172839506172839,0,0,0.06172839506172839,66.48148148148148,0)" xlink:href="#aC"/></g><path fill="#fff" d="M30-248c87 1 191-15 191 75 0 78-77 80-158 76V0H30v-248zm33 125c57 0 124 11 124-50 0-59-68-47-124-48v98" id="aD"/><path fill="#fff" d="M100-194c62-1 85 37 85 99 1 63-27 99-86 99S16-35 15-95c0-66 28-99 85-99zM99-20c44 1 53-31 53-75 0-43-8-75-51-75s-53 32-53 75 10 74 51 75" id="aE"/><path fill="#fff" d="M85-194c31 0 48 13 60 33l-1-100h32l1 261h-30c-2-10 0-23-3-31C134-8 116 4 85 4 32 4 16-35 15-94c0-66 23-100 70-100zm9 24c-40 0-46 34-46 75 0 40 6 74 45 74 42 0 51-32 51-76 0-42-9-74-50-73" id="aF"/><path fill="#fff" d="M84 4C-5 8 30-112 23-190h32v120c0 31 7 50 39 49 72-2 45-101 50-169h31l1 190h-30c-1-10 1-25-2-33-11 22-28 36-60 37" id="aG"/><path fill="#fff" d="M96-169c-40 0-48 33-48 73s9 75 48 75c24 0 41-14 43-38l32 2c-6 37-31 61-74 61-59 0-76-41-82-99-10-93 101-131 147-64 4 7 5 14 7 22l-32 3c-4-21-16-35-41-35" id="aH"/><path fill="#fff" d="M59-47c-2 24 18 29 38 22v24C64 9 27 4 27-40v-127H5v-23h24l9-43h21v43h35v23H59v120" id="aI"/><path fill="#fff" d="M135-143c-3-34-86-38-87 0 15 53 115 12 119 90S17 21 10-45l28-5c4 36 97 45 98 0-10-56-113-15-118-90-4-57 82-63 122-42 12 7 21 19 24 35" id="aJ"/><g id="g"><use transform="matrix(0.06172839506172839,0,0,0.06172839506172839,0,0)" xlink:href="#aD"/><use transform="matrix(0.06172839506172839,0,0,0.06172839506172839,14.814814814814813,0)" xlink:href="#ay"/><use transform="matrix(0.06172839506172839,0,0,0.06172839506172839,22.160493827160494,0)" xlink:href="#aE"/><use transform="matrix(0.06172839506172839,0,0,0.06172839506172839,34.50617283950617,0)" xlink:href="#aF"/><use transform="matrix(0.06172839506172839,0,0,0.06172839506172839,46.85185185185185,0)" xlink:href="#aG"/><use transform="matrix(0.06172839506172839,0,0,0.06172839506172839,59.197530864197525,0)" xlink:href="#aH"/><use transform="matrix(0.06172839506172839,0,0,0.06172839506172839,70.30864197530863,0)" xlink:href="#aI"/><use transform="matrix(0.06172839506172839,0,0,0.06172839506172839,76.48148148148147,0)" xlink:href="#aJ"/></g><g id="h"><use transform="matrix(0.06172839506172839,0,0,0.06172839506172839,0,0)" xlink:href="#ax"/><use transform="matrix(0.06172839506172839,0,0,0.06172839506172839,12.345679012345679,0)" xlink:href="#aJ"/></g><path fill="#fff" d="M24 0v-261h32V0H24" id="aK"/><g id="i"><use transform="matrix(0.06172839506172839,0,0,0.06172839506172839,0,0)" xlink:href="#aJ"/><use transform="matrix(0.06172839506172839,0,0,0.06172839506172839,11.11111111111111,0)" xlink:href="#aE"/><use transform="matrix(0.06172839506172839,0,0,0.06172839506172839,23.45679012345679,0)" xlink:href="#aK"/><use transform="matrix(0.06172839506172839,0,0,0.06172839506172839,28.333333333333336,0)" xlink:href="#aF"/></g><path fill="#fff" d="M206 0h-36l-40-164L89 0H53L-1-190h32L70-26l43-164h34l41 164 42-164h31" id="aL"/><g id="j"><use transform="matrix(0.06172839506172839,0,0,0.06172839506172839,0,0)" xlink:href="#aL"/><use transform="matrix(0.06172839506172839,0,0,0.06172839506172839,15.987654320987653,0)" xlink:href="#ax"/><use transform="matrix(0.06172839506172839,0,0,0.06172839506172839,28.333333333333332,0)" xlink:href="#aB"/><use transform="matrix(0.06172839506172839,0,0,0.06172839506172839,40.67901234567901,0)" xlink:href="#aI"/></g><g id="k"><use transform="matrix(0.06172839506172839,0,0,0.06172839506172839,0,0)" xlink:href="#aI"/><use transform="matrix(0.06172839506172839,0,0,0.06172839506172839,6.172839506172839,0)" xlink:href="#aE"/></g><path fill="#fff" d="M100-194c63 0 86 42 84 106H49c0 40 14 67 53 68 26 1 43-12 49-29l28 8c-11 28-37 45-77 45C44 4 14-33 15-96c1-61 26-98 85-98zm52 81c6-60-76-77-97-28-3 7-6 17-6 28h103" id="aM"/><g id="l"><use transform="matrix(0.06172839506172839,0,0,0.06172839506172839,0,0)" xlink:href="#aJ"/><use transform="matrix(0.06172839506172839,0,0,0.06172839506172839,11.11111111111111,0)" xlink:href="#aM"/><use transform="matrix(0.06172839506172839,0,0,0.06172839506172839,23.45679012345679,0)" xlink:href="#aM"/></g><g id="m"><use transform="matrix(0.06172839506172839,0,0,0.06172839506172839,0,0)" xlink:href="#ax"/><use transform="matrix(0.06172839506172839,0,0,0.06172839506172839,12.345679012345679,0)" xlink:href="#aB"/></g><path fill="#fff" d="M108 0H70L1-190h34L89-25l56-165h34" id="aN"/><g id="n"><use transform="matrix(0.06172839506172839,0,0,0.06172839506172839,0,0)" xlink:href="#aE"/><use transform="matrix(0.06172839506172839,0,0,0.06172839506172839,12.345679012345679,0)" xlink:href="#aN"/><use transform="matrix(0.06172839506172839,0,0,0.06172839506172839,23.45679012345679,0)" xlink:href="#aM"/><use transform="matrix(0.06172839506172839,0,0,0.06172839506172839,35.80246913580247,0)" xlink:href="#ay"/><use transform="matrix(0.06172839506172839,0,0,0.06172839506172839,43.148148148148145,0)" xlink:href="#aN"/><use transform="matrix(0.06172839506172839,0,0,0.06172839506172839,54.25925925925925,0)" xlink:href="#aA"/><use transform="matrix(0.06172839506172839,0,0,0.06172839506172839,59.1358024691358,0)" xlink:href="#aM"/><use transform="matrix(0.06172839506172839,0,0,0.06172839506172839,71.48148148148148,0)" xlink:href="#aL"/></g><path fill="#fff" d="M101-234c-31-9-42 10-38 44h38v23H63V0H32v-167H5v-23h27c-7-52 17-82 69-68v24" id="aO"/><g id="o"><use transform="matrix(0.06172839506172839,0,0,0.06172839506172839,0,0)" xlink:href="#aE"/><use transform="matrix(0.06172839506172839,0,0,0.06172839506172839,12.345679012345679,0)" xlink:href="#aO"/></g><path fill="#fff" d="M106-169C34-169 62-67 57 0H25v-261h32l-1 103c12-21 28-36 61-36 89 0 53 116 60 194h-32v-121c2-32-8-49-39-48" id="aP"/><g id="p"><use transform="matrix(0.06172839506172839,0,0,0.06172839506172839,0,0)" xlink:href="#aI"/><use transform="matrix(0.06172839506172839,0,0,0.06172839506172839,6.172839506172839,0)" xlink:href="#aP"/><use transform="matrix(0.06172839506172839,0,0,0.06172839506172839,18.51851851851852,0)" xlink:href="#aM"/></g><path fill="#fff" d="M179-190L93 31C79 59 56 82 12 73V49c39 6 53-20 64-50L1-190h34L92-34l54-156h33" id="aQ"/><g id="q"><use transform="matrix(0.06172839506172839,0,0,0.06172839506172839,0,0)" xlink:href="#aA"/><use transform="matrix(0.06172839506172839,0,0,0.06172839506172839,4.876543209876543,0)" xlink:href="#aB"/><use transform="matrix(0.06172839506172839,0,0,0.06172839506172839,17.22222222222222,0)" xlink:href="#aN"/><use transform="matrix(0.06172839506172839,0,0,0.06172839506172839,28.333333333333332,0)" xlink:href="#aM"/><use transform="matrix(0.06172839506172839,0,0,0.06172839506172839,40.67901234567901,0)" xlink:href="#aB"/><use transform="matrix(0.06172839506172839,0,0,0.06172839506172839,53.02469135802469,0)" xlink:href="#aI"/><use transform="matrix(0.06172839506172839,0,0,0.06172839506172839,59.19753086419753,0)" xlink:href="#aE"/><use transform="matrix(0.06172839506172839,0,0,0.06172839506172839,71.54320987654322,0)" xlink:href="#ay"/><use transform="matrix(0.06172839506172839,0,0,0.06172839506172839,78.8888888888889,0)" xlink:href="#aQ"/></g><path fill="#fff" d="M0 4l72-265h28L28 4H0" id="aR"/><g id="r"><use transform="matrix(0.06172839506172839,0,0,0.06172839506172839,0,0)" xlink:href="#ax"/><use transform="matrix(0.06172839506172839,0,0,0.06172839506172839,12.345679012345679,0)" xlink:href="#aF"/><use transform="matrix(0.06172839506172839,0,0,0.06172839506172839,24.691358024691358,0)" xlink:href="#aF"/><use transform="matrix(0.06172839506172839,0,0,0.06172839506172839,37.03703703703704,0)" xlink:href="#aR"/><use transform="matrix(0.06172839506172839,0,0,0.06172839506172839,43.20987654320988,0)" xlink:href="#aF"/><use transform="matrix(0.06172839506172839,0,0,0.06172839506172839,55.55555555555556,0)" xlink:href="#aM"/><use transform="matrix(0.06172839506172839,0,0,0.06172839506172839,67.90123456790124,0)" xlink:href="#aK"/><use transform="matrix(0.06172839506172839,0,0,0.06172839506172839,72.77777777777779,0)" xlink:href="#aM"/><use transform="matrix(0.06172839506172839,0,0,0.06172839506172839,85.12345679012347,0)" xlink:href="#aI"/><use transform="matrix(0.06172839506172839,0,0,0.06172839506172839,91.2962962962963,0)" xlink:href="#aM"/></g><path fill="#fff" d="M115-194c55 1 70 41 70 98S169 2 115 4C84 4 66-9 55-30l1 105H24l-1-265h31l2 30c10-21 28-34 59-34zm-8 174c40 0 45-34 45-75s-6-73-45-74c-42 0-51 32-51 76 0 43 10 73 51 73" id="aS"/><g id="s"><use transform="matrix(0.06172839506172839,0,0,0.06172839506172839,0,0)" xlink:href="#aS"/><use transform="matrix(0.06172839506172839,0,0,0.06172839506172839,12.345679012345679,0)" xlink:href="#ay"/><use transform="matrix(0.06172839506172839,0,0,0.06172839506172839,19.691358024691358,0)" xlink:href="#aE"/><use transform="matrix(0.06172839506172839,0,0,0.06172839506172839,32.03703703703704,0)" xlink:href="#aF"/><use transform="matrix(0.06172839506172839,0,0,0.06172839506172839,44.382716049382715,0)" xlink:href="#aG"/><use transform="matrix(0.06172839506172839,0,0,0.06172839506172839,56.72839506172839,0)" xlink:href="#aH"/><use transform="matrix(0.06172839506172839,0,0,0.06172839506172839,67.8395061728395,0)" xlink:href="#aI"/><use transform="matrix(0.06172839506172839,0,0,0.06172839506172839,74.01234567901234,0)" xlink:href="#aJ"/></g><g id="t"><use transform="matrix(0.06172839506172839,0,0,0.06172839506172839,0,0)" xlink:href="#aO"/><use transform="matrix(0.06172839506172839,0,0,0.06172839506172839,6.172839506172839,0)" xlink:href="#ay"/><use transform="matrix(0.06172839506172839,0,0,0.06172839506172839,13.518518518518519,0)" xlink:href="#aE"/><use transform="matrix(0.06172839506172839,0,0,0.06172839506172839,25.864197530864196,0)" xlink:href="#aw"/></g><g id="u"><use transform="matrix(0.06172839506172839,0,0,0.06172839506172839,0,0)" xlink:href="#aI"/><use transform="matrix(0.06172839506172839,0,0,0.06172839506172839,6.172839506172839,0)" xlink:href="#aP"/><use transform="matrix(0.06172839506172839,0,0,0.06172839506172839,18.51851851851852,0)" xlink:href="#aM"/></g><g id="v"><use transform="matrix(0.055555555555555546,0,0,0.055555555555555546,0,0)" xlink:href="#aw"/><use transform="matrix(0.055555555555555546,0,0,0.055555555555555546,16.611111111111107,0)" xlink:href="#ax"/><use transform="matrix(0.055555555555555546,0,0,0.055555555555555546,27.722222222222214,0)" xlink:href="#aB"/><use transform="matrix(0.055555555555555546,0,0,0.055555555555555546,38.83333333333332,0)" xlink:href="#ax"/><use transform="matrix(0.055555555555555546,0,0,0.055555555555555546,49.94444444444443,0)" xlink:href="#aC"/><use transform="matrix(0.055555555555555546,0,0,0.055555555555555546,61.05555555555553,0)" xlink:href="#aM"/></g><g id="w"><use transform="matrix(0.055555555555555546,0,0,0.055555555555555546,0,0)" xlink:href="#aH"/><use transform="matrix(0.055555555555555546,0,0,0.055555555555555546,9.999999999999998,0)" xlink:href="#aE"/><use transform="matrix(0.055555555555555546,0,0,0.055555555555555546,21.111111111111107,0)" xlink:href="#aJ"/><use transform="matrix(0.055555555555555546,0,0,0.055555555555555546,31.111111111111107,0)" xlink:href="#aI"/><use transform="matrix(0.055555555555555546,0,0,0.055555555555555546,36.666666666666664,0)" xlink:href="#aG"/><use transform="matrix(0.055555555555555546,0,0,0.055555555555555546,47.77777777777777,0)" xlink:href="#aw"/><use transform="matrix(0.055555555555555546,0,0,0.055555555555555546,64.38888888888889,0)" xlink:href="#aM"/><use transform="matrix(0.055555555555555546,0,0,0.055555555555555546,75.5,0)" xlink:href="#ay"/><use transform="matrix(0.055555555555555546,0,0,0.055555555555555546,82.11111111111111,0)" xlink:href="#aJ"/></g><path fill="#fff" d="M87 75C49 33 22-17 22-94c0-76 28-126 65-167h31c-38 41-64 92-64 168S80 34 118 75H87" id="aT"/><g id="x"><use transform="matrix(0.055555555555555546,0,0,0.055555555555555546,0,0)" xlink:href="#aT"/><use transform="matrix(0.055555555555555546,0,0,0.055555555555555546,6.61111111111111,0)" xlink:href="#ax"/><use transform="matrix(0.055555555555555546,0,0,0.055555555555555546,17.722222222222218,0)" xlink:href="#aJ"/><use transform="matrix(0.055555555555555546,0,0,0.055555555555555546,27.722222222222214,0)" xlink:href="#aJ"/><use transform="matrix(0.055555555555555546,0,0,0.055555555555555546,37.722222222222214,0)" xlink:href="#aA"/><use transform="matrix(0.055555555555555546,0,0,0.055555555555555546,42.1111111111111,0)" xlink:href="#aC"/><use transform="matrix(0.055555555555555546,0,0,0.055555555555555546,53.22222222222221,0)" xlink:href="#aB"/></g><g id="y"><use transform="matrix(0.055555555555555546,0,0,0.055555555555555546,0,0)" xlink:href="#aS"/><use transform="matrix(0.055555555555555546,0,0,0.055555555555555546,11.111111111111109,0)" xlink:href="#aG"/><use transform="matrix(0.055555555555555546,0,0,0.055555555555555546,22.222222222222218,0)" xlink:href="#ay"/><use transform="matrix(0.055555555555555546,0,0,0.055555555555555546,28.83333333333333,0)" xlink:href="#aH"/><use transform="matrix(0.055555555555555546,0,0,0.055555555555555546,38.83333333333333,0)" xlink:href="#aP"/><use transform="matrix(0.055555555555555546,0,0,0.055555555555555546,49.944444444444436,0)" xlink:href="#ax"/><use transform="matrix(0.055555555555555546,0,0,0.055555555555555546,61.05555555555554,0)" xlink:href="#aJ"/><use transform="matrix(0.055555555555555546,0,0,0.055555555555555546,71.05555555555554,0)" xlink:href="#aM"/><use transform="matrix(0.055555555555555546,0,0,0.055555555555555546,82.16666666666666,0)" xlink:href="#aJ"/></g><g id="z"><use transform="matrix(0.055555555555555546,0,0,0.055555555555555546,0,0)" xlink:href="#aI"/><use transform="matrix(0.055555555555555546,0,0,0.055555555555555546,5.5555555555555545,0)" xlink:href="#aE"/></g><g id="A"><use transform="matrix(0.055555555555555546,0,0,0.055555555555555546,0,0)" xlink:href="#aJ"/><use transform="matrix(0.055555555555555546,0,0,0.055555555555555546,9.999999999999998,0)" xlink:href="#aS"/><use transform="matrix(0.055555555555555546,0,0,0.055555555555555546,21.111111111111107,0)" xlink:href="#aM"/><use transform="matrix(0.055555555555555546,0,0,0.055555555555555546,32.222222222222214,0)" xlink:href="#aH"/><use transform="matrix(0.055555555555555546,0,0,0.055555555555555546,42.222222222222214,0)" xlink:href="#aA"/><use transform="matrix(0.055555555555555546,0,0,0.055555555555555546,46.6111111111111,0)" xlink:href="#aO"/><use transform="matrix(0.055555555555555546,0,0,0.055555555555555546,52.16666666666666,0)" xlink:href="#aA"/><use transform="matrix(0.055555555555555546,0,0,0.055555555555555546,56.55555555555554,0)" xlink:href="#aH"/></g><path fill="#fff" d="M33-261c38 41 65 92 65 168S71 34 33 75H2C39 34 66-17 66-93S39-220 2-261h31" id="aU"/><g id="B"><use transform="matrix(0.055555555555555546,0,0,0.055555555555555546,0,0)" xlink:href="#aH"/><use transform="matrix(0.055555555555555546,0,0,0.055555555555555546,9.999999999999998,0)" xlink:href="#aG"/><use transform="matrix(0.055555555555555546,0,0,0.055555555555555546,21.111111111111107,0)" xlink:href="#aJ"/><use transform="matrix(0.055555555555555546,0,0,0.055555555555555546,31.111111111111107,0)" xlink:href="#aI"/><use transform="matrix(0.055555555555555546,0,0,0.055555555555555546,36.666666666666664,0)" xlink:href="#aE"/><use transform="matrix(0.055555555555555546,0,0,0.055555555555555546,47.77777777777777,0)" xlink:href="#aw"/><use transform="matrix(0.055555555555555546,0,0,0.055555555555555546,64.38888888888889,0)" xlink:href="#aM"/><use transform="matrix(0.055555555555555546,0,0,0.055555555555555546,75.5,0)" xlink:href="#ay"/><use transform="matrix(0.055555555555555546,0,0,0.055555555555555546,82.11111111111111,0)" xlink:href="#aJ"/><use transform="matrix(0.055555555555555546,0,0,0.055555555555555546,92.11111111111111,0)" xlink:href="#aU"/></g><path d="M24-248c120-7 223 5 221 122C244-46 201 0 124 0H24v-248zM76-40c74 7 117-18 117-86 0-67-45-88-117-82v168" id="aV"/><path d="M25-224v-37h50v37H25zM25 0v-190h50V0H25" id="aW"/><path d="M133-34C117-15 103 5 69 4 32 3 11-16 11-54c-1-60 55-63 116-61 1-26-3-47-28-47-18 1-26 9-28 27l-52-2c7-38 36-58 82-57s74 22 75 68l1 82c-1 14 12 18 25 15v27c-30 8-71 5-69-32zm-48 3c29 0 43-24 42-57-32 0-66-3-65 30 0 17 8 27 23 27" id="aX"/><path d="M195-6C206 82 75 100 31 46c-4-6-6-13-8-21l49-6c3 16 16 24 34 25 40 0 42-37 40-79-11 22-30 35-61 35-53 0-70-43-70-97 0-56 18-96 73-97 30 0 46 14 59 34l2-30h47zm-90-29c32 0 41-27 41-63 0-35-9-62-40-62-32 0-39 29-40 63 0 36 9 62 39 62" id="aY"/><path d="M135-150c-39-12-60 13-60 57V0H25l-1-190h47c2 13-1 29 3 40 6-28 27-53 61-41v41" id="aZ"/><path d="M220-157c-53 9-28 100-34 157h-49v-107c1-27-5-49-29-50C55-147 81-57 75 0H25l-1-190h47c2 12-1 28 3 38 10-53 101-56 108 0 13-22 24-43 59-42 82 1 51 116 57 194h-49v-107c-1-25-5-48-29-50" id="ba"/><g id="C"><use transform="matrix(0.05,0,0,0.05,0,0)" xlink:href="#aV"/><use transform="matrix(0.05,0,0,0.05,12.950000000000001,0)" xlink:href="#aW"/><use transform="matrix(0.05,0,0,0.05,17.950000000000003,0)" xlink:href="#aX"/><use transform="matrix(0.05,0,0,0.05,27.950000000000003,0)" xlink:href="#aY"/><use transform="matrix(0.05,0,0,0.05,38.900000000000006,0)" xlink:href="#aZ"/><use transform="matrix(0.05,0,0,0.05,45.900000000000006,0)" xlink:href="#aX"/><use transform="matrix(0.05,0,0,0.05,55.900000000000006,0)" xlink:href="#ba"/></g><path d="M195 0l-88-114-31 24V0H24v-248h52v113l112-113h60L142-143 257 0h-62" id="bb"/><path d="M185-48c-13 30-37 53-82 52C43 2 14-33 14-96s30-98 90-98c62 0 83 45 84 108H66c0 31 8 55 39 56 18 0 30-7 34-22zm-45-69c5-46-57-63-70-21-2 6-4 13-4 21h74" id="bc"/><path d="M123 10C108 53 80 86 19 72V37c35 8 53-11 59-39L3-190h52l48 148c12-52 28-100 44-148h51" id="bd"/><g id="D"><use transform="matrix(0.05,0,0,0.05,0,0)" xlink:href="#bb"/><use transform="matrix(0.05,0,0,0.05,12.950000000000001,0)" xlink:href="#bc"/><use transform="matrix(0.05,0,0,0.05,22.950000000000003,0)" xlink:href="#bd"/></g><path d="M232-93c-1 65-40 97-104 97C67 4 28-28 28-90v-158h33c8 89-33 224 67 224 102 0 64-133 71-224h33v155" id="be"/><path d="M135-143c-3-34-86-38-87 0 15 53 115 12 119 90S17 21 10-45l28-5c4 36 97 45 98 0-10-56-113-15-118-90-4-57 82-63 122-42 12 7 21 19 24 35" id="bf"/><path d="M100-194c63 0 86 42 84 106H49c0 40 14 67 53 68 26 1 43-12 49-29l28 8c-11 28-37 45-77 45C44 4 14-33 15-96c1-61 26-98 85-98zm52 81c6-60-76-77-97-28-3 7-6 17-6 28h103" id="bg"/><g id="E"><use transform="matrix(0.03888888888888889,0,0,0.03888888888888889,0,0)" xlink:href="#be"/><use transform="matrix(0.03888888888888889,0,0,0.03888888888888889,10.072222222222223,0)" xlink:href="#bf"/><use transform="matrix(0.03888888888888889,0,0,0.03888888888888889,17.072222222222223,0)" xlink:href="#bg"/></g><path d="M96-169c-40 0-48 33-48 73s9 75 48 75c24 0 41-14 43-38l32 2c-6 37-31 61-74 61-59 0-76-41-82-99-10-93 101-131 147-64 4 7 5 14 7 22l-32 3c-4-21-16-35-41-35" id="bh"/><path d="M141-36C126-15 110 5 73 4 37 3 15-17 15-53c-1-64 63-63 125-63 3-35-9-54-41-54-24 1-41 7-42 31l-33-3c5-37 33-52 76-52 45 0 72 20 72 64v82c-1 20 7 32 28 27v20c-31 9-61-2-59-35zM48-53c0 20 12 33 32 33 41-3 63-29 60-74-43 2-92-5-92 41" id="bi"/><g id="F"><use transform="matrix(0.03888888888888889,0,0,0.03888888888888889,0,0)" xlink:href="#bh"/><use transform="matrix(0.03888888888888889,0,0,0.03888888888888889,7,0)" xlink:href="#bi"/><use transform="matrix(0.03888888888888889,0,0,0.03888888888888889,14.777777777777779,0)" xlink:href="#bf"/><use transform="matrix(0.03888888888888889,0,0,0.03888888888888889,21.77777777777778,0)" xlink:href="#bg"/></g><path d="M205 0l-28-72H64L36 0H1l101-248h38L239 0h-34zm-38-99l-47-123c-12 45-31 82-46 123h93" id="bj"/><path d="M59-47c-2 24 18 29 38 22v24C64 9 27 4 27-40v-127H5v-23h24l9-43h21v43h35v23H59v120" id="bk"/><path d="M100-194c62-1 85 37 85 99 1 63-27 99-86 99S16-35 15-95c0-66 28-99 85-99zM99-20c44 1 53-31 53-75 0-43-8-75-51-75s-53 32-53 75 10 74 51 75" id="bl"/><path d="M114-163C36-179 61-72 57 0H25l-1-190h30c1 12-1 29 2 39 6-27 23-49 58-41v29" id="bm"/><g id="G"><use transform="matrix(0.03888888888888889,0,0,0.03888888888888889,0,0)" xlink:href="#bj"/><use transform="matrix(0.03888888888888889,0,0,0.03888888888888889,9.333333333333334,0)" xlink:href="#bh"/><use transform="matrix(0.03888888888888889,0,0,0.03888888888888889,16.333333333333336,0)" xlink:href="#bk"/><use transform="matrix(0.03888888888888889,0,0,0.03888888888888889,20.22222222222223,0)" xlink:href="#bl"/><use transform="matrix(0.03888888888888889,0,0,0.03888888888888889,28.000000000000004,0)" xlink:href="#bm"/></g><path fill="#333" d="M87-220l-18 92h140l-5 28H64L45 0H11l48-248h178l-5 28H87" id="bn"/><g id="H"><use transform="matrix(0.04938271604938272,0,0,0.04938271604938272,0,0)" xlink:href="#bn"/><use transform="matrix(0.04938271604938272,0,0,0.04938271604938272,10.814814814814815,0)" xlink:href="#at"/><use transform="matrix(0.04938271604938272,0,0,0.04938271604938272,14.71604938271605,0)" xlink:href="#av"/><use transform="matrix(0.04938271604938272,0,0,0.04938271604938272,24.592592592592595,0)" xlink:href="#ap"/><use transform="matrix(0.04938271604938272,0,0,0.04938271604938272,34.46913580246914,0)" xlink:href="#av"/><use transform="matrix(0.04938271604938272,0,0,0.04938271604938272,44.345679012345684,0)" xlink:href="#au"/><use transform="matrix(0.04938271604938272,0,0,0.04938271604938272,53.23456790123457,0)" xlink:href="#at"/><use transform="matrix(0.04938271604938272,0,0,0.04938271604938272,57.135802469135804,0)" xlink:href="#ap"/><use transform="matrix(0.04938271604938272,0,0,0.04938271604938272,67.01234567901236,0)" xlink:href="#ar"/></g><g id="I"><use transform="matrix(0.04938271604938272,0,0,0.04938271604938272,0,0)" xlink:href="#ap"/><use transform="matrix(0.04938271604938272,0,0,0.04938271604938272,9.876543209876544,0)" xlink:href="#au"/><use transform="matrix(0.04938271604938272,0,0,0.04938271604938272,18.765432098765434,0)" xlink:href="#au"/><use transform="matrix(0.04938271604938272,0,0,0.04938271604938272,27.654320987654323,0)" xlink:href="#ak"/><use transform="matrix(0.04938271604938272,0,0,0.04938271604938272,37.53086419753087,0)" xlink:href="#ah"/><use transform="matrix(0.04938271604938272,0,0,0.04938271604938272,47.40740740740741,0)" xlink:href="#av"/><use transform="matrix(0.04938271604938272,0,0,0.04938271604938272,57.283950617283956,0)" xlink:href="#aj"/><use transform="matrix(0.04938271604938272,0,0,0.04938271604938272,62.22222222222223,0)" xlink:href="#ap"/><use transform="matrix(0.04938271604938272,0,0,0.04938271604938272,72.09876543209877,0)" xlink:href="#av"/><use transform="matrix(0.04938271604938272,0,0,0.04938271604938272,81.97530864197532,0)" xlink:href="#aj"/></g><path fill="#333" d="M194-120c59 52 2 134-86 124-53-6-90-18-98-63l31-7c8 30 29 43 70 43 46 0 84-17 71-62-32-43-135-20-137-98-3-89 178-90 191-16l-30 9c-8-48-127-53-127 5 0 53 81 35 115 65" id="bo"/><g id="J"><use transform="matrix(0.04938271604938272,0,0,0.04938271604938272,0,0)" xlink:href="#bo"/><use transform="matrix(0.04938271604938272,0,0,0.04938271604938272,11.851851851851853,0)" xlink:href="#am"/><use transform="matrix(0.04938271604938272,0,0,0.04938271604938272,21.7283950617284,0)" xlink:href="#ar"/><use transform="matrix(0.04938271604938272,0,0,0.04938271604938272,25.629629629629633,0)" xlink:href="#ar"/><use transform="matrix(0.04938271604938272,0,0,0.04938271604938272,29.530864197530867,0)" xlink:href="#am"/><use transform="matrix(0.04938271604938272,0,0,0.04938271604938272,39.40740740740741,0)" xlink:href="#an"/></g><path fill="#333" d="M187 0l-14-72H61L19 0h-37l149-248h38L221 0h-34zm-19-99l-22-123L76-99h92" id="bp"/><path fill="#333" d="M133-28C103 26-5 8 13-77c13-62 24-115 90-117 29-1 46 15 56 35l19-102h32L160 0h-30zM45-64c-2 27 10 43 35 43 54-1 69-50 69-103 0-29-15-46-42-46-53-1-58 58-62 106" id="bq"/><g id="K"><use transform="matrix(0.055555555555555525,0,0,0.055555555555555525,0,0)" xlink:href="#bp"/><use transform="matrix(0.055555555555555525,0,0,0.055555555555555525,13.333333333333325,0)" xlink:href="#bq"/><use transform="matrix(0.055555555555555525,0,0,0.055555555555555525,24.44444444444443,0)" xlink:href="#al"/><use transform="matrix(0.055555555555555525,0,0,0.055555555555555525,41.05555555555553,0)" xlink:href="#at"/><use transform="matrix(0.055555555555555525,0,0,0.055555555555555525,45.444444444444414,0)" xlink:href="#av"/></g><path fill="#333" d="M24-231v-30h32v30H24zM24 0v-190h32V0H24" id="br"/><path fill="#333" d="M135-143c-3-34-86-38-87 0 15 53 115 12 119 90S17 21 10-45l28-5c4 36 97 45 98 0-10-56-113-15-118-90-4-57 82-63 122-42 12 7 21 19 24 35" id="bs"/><g id="L"><use transform="matrix(0.04938271604938272,0,0,0.04938271604938272,0,0)" xlink:href="#br"/><use transform="matrix(0.04938271604938272,0,0,0.04938271604938272,3.901234567901235,0)" xlink:href="#bs"/></g><path fill="#333" d="M115-194c53 0 69 39 70 98 0 66-23 100-70 100C84 3 66-7 56-30L54 0H23l1-261h32v101c10-23 28-34 59-34zm-8 174c40 0 45-34 45-75 0-40-5-75-45-74-42 0-51 32-51 76 0 43 10 73 51 73" id="bt"/><path fill="#333" d="M100-194c63 0 86 42 84 106H49c0 40 14 67 53 68 26 1 43-12 49-29l28 8c-11 28-37 45-77 45C44 4 14-33 15-96c1-61 26-98 85-98zm52 81c6-60-76-77-97-28-3 7-6 17-6 28h103" id="bu"/><path fill="#333" d="M117-194c89-4 53 116 60 194h-32v-121c0-31-8-49-39-48C34-167 62-67 57 0H25l-1-190h30c1 10-1 24 2 32 11-22 29-35 61-36" id="bv"/><path fill="#333" d="M177-190C167-65 218 103 67 71c-23-6-38-20-44-43l32-5c15 47 100 32 89-28v-30C133-14 115 1 83 1 29 1 15-40 15-95c0-56 16-97 71-98 29-1 48 16 59 35 1-10 0-23 2-32h30zM94-22c36 0 50-32 50-73 0-42-14-75-50-75-39 0-46 34-46 75s6 73 46 73" id="bw"/><g id="M"><use transform="matrix(0.04938271604938272,0,0,0.04938271604938272,0,0)" xlink:href="#bt"/><use transform="matrix(0.04938271604938272,0,0,0.04938271604938272,9.876543209876544,0)" xlink:href="#bu"/><use transform="matrix(0.04938271604938272,0,0,0.04938271604938272,19.75308641975309,0)" xlink:href="#bu"/><use transform="matrix(0.04938271604938272,0,0,0.04938271604938272,29.629629629629633,0)" xlink:href="#br"/><use transform="matrix(0.04938271604938272,0,0,0.04938271604938272,33.53086419753087,0)" xlink:href="#bv"/><use transform="matrix(0.04938271604938272,0,0,0.04938271604938272,43.40740740740741,0)" xlink:href="#bw"/></g><path fill="#333" d="M141-36C126-15 110 5 73 4 37 3 15-17 15-53c-1-64 63-63 125-63 3-35-9-54-41-54-24 1-41 7-42 31l-33-3c5-37 33-52 76-52 45 0 72 20 72 64v82c-1 20 7 32 28 27v20c-31 9-61-2-59-35zM48-53c0 20 12 33 32 33 41-3 63-29 60-74-43 2-92-5-92 41" id="bx"/><path fill="#333" d="M59-47c-2 24 18 29 38 22v24C64 9 27 4 27-40v-127H5v-23h24l9-43h21v43h35v23H59v120" id="by"/><g id="N"><use transform="matrix(0.04938271604938272,0,0,0.04938271604938272,0,0)" xlink:href="#bx"/><use transform="matrix(0.04938271604938272,0,0,0.04938271604938272,9.876543209876544,0)" xlink:href="#bs"/><use transform="matrix(0.04938271604938272,0,0,0.04938271604938272,18.765432098765434,0)" xlink:href="#bs"/><use transform="matrix(0.04938271604938272,0,0,0.04938271604938272,27.654320987654323,0)" xlink:href="#br"/><use transform="matrix(0.04938271604938272,0,0,0.04938271604938272,31.555555555555557,0)" xlink:href="#bw"/><use transform="matrix(0.04938271604938272,0,0,0.04938271604938272,41.4320987654321,0)" xlink:href="#bv"/><use transform="matrix(0.04938271604938272,0,0,0.04938271604938272,51.308641975308646,0)" xlink:href="#by"/></g><path fill="#333" d="M100-194c62-1 85 37 85 99 1 63-27 99-86 99S16-35 15-95c0-66 28-99 85-99zM99-20c44 1 53-31 53-75 0-43-8-75-51-75s-53 32-53 75 10 74 51 75" id="bz"/><g id="O"><use transform="matrix(0.04938271604938272,0,0,0.04938271604938272,0,0)" xlink:href="#by"/><use transform="matrix(0.04938271604938272,0,0,0.04938271604938272,4.938271604938272,0)" xlink:href="#bz"/></g><path fill="#333" d="M115-194c55 1 70 41 70 98S169 2 115 4C84 4 66-9 55-30l1 105H24l-1-265h31l2 30c10-21 28-34 59-34zm-8 174c40 0 45-34 45-75s-6-73-45-74c-42 0-51 32-51 76 0 43 10 73 51 73" id="bA"/><path fill="#333" d="M84 4C-5 8 30-112 23-190h32v120c0 31 7 50 39 49 72-2 45-101 50-169h31l1 190h-30c-1-10 1-25-2-33-11 22-28 36-60 37" id="bB"/><path fill="#333" d="M114-163C36-179 61-72 57 0H25l-1-190h30c1 12-1 29 2 39 6-27 23-49 58-41v29" id="bC"/><path fill="#333" d="M96-169c-40 0-48 33-48 73s9 75 48 75c24 0 41-14 43-38l32 2c-6 37-31 61-74 61-59 0-76-41-82-99-10-93 101-131 147-64 4 7 5 14 7 22l-32 3c-4-21-16-35-41-35" id="bD"/><path fill="#333" d="M106-169C34-169 62-67 57 0H25v-261h32l-1 103c12-21 28-36 61-36 89 0 53 116 60 194h-32v-121c2-32-8-49-39-48" id="bE"/><g id="P"><use transform="matrix(0.04938271604938272,0,0,0.04938271604938272,0,0)" xlink:href="#bA"/><use transform="matrix(0.04938271604938272,0,0,0.04938271604938272,9.876543209876544,0)" xlink:href="#bB"/><use transform="matrix(0.04938271604938272,0,0,0.04938271604938272,19.75308641975309,0)" xlink:href="#bC"/><use transform="matrix(0.04938271604938272,0,0,0.04938271604938272,25.629629629629633,0)" xlink:href="#bD"/><use transform="matrix(0.04938271604938272,0,0,0.04938271604938272,34.51851851851852,0)" xlink:href="#bE"/><use transform="matrix(0.04938271604938272,0,0,0.04938271604938272,44.39506172839506,0)" xlink:href="#bx"/><use transform="matrix(0.04938271604938272,0,0,0.04938271604938272,54.27160493827161,0)" xlink:href="#bs"/><use transform="matrix(0.04938271604938272,0,0,0.04938271604938272,63.1604938271605,0)" xlink:href="#bu"/><use transform="matrix(0.04938271604938272,0,0,0.04938271604938272,73.03703703703704,0)" xlink:href="#bs"/></g><path fill="#fff" d="M212-179c-10-28-35-45-73-45-59 0-87 40-87 99 0 60 29 101 89 101 43 0 62-24 78-52l27 14C228-24 195 4 139 4 59 4 22-46 18-125c-6-104 99-153 187-111 19 9 31 26 39 46" id="bF"/><g id="Q"><use transform="matrix(0.06172839506172839,0,0,0.06172839506172839,0,0)" xlink:href="#bF"/><use transform="matrix(0.06172839506172839,0,0,0.06172839506172839,15.987654320987653,0)" xlink:href="#aP"/><use transform="matrix(0.06172839506172839,0,0,0.06172839506172839,28.333333333333332,0)" xlink:href="#ax"/><use transform="matrix(0.06172839506172839,0,0,0.06172839506172839,40.67901234567901,0)" xlink:href="#aB"/><use transform="matrix(0.06172839506172839,0,0,0.06172839506172839,53.02469135802469,0)" xlink:href="#aC"/><use transform="matrix(0.06172839506172839,0,0,0.06172839506172839,65.37037037037037,0)" xlink:href="#aA"/><use transform="matrix(0.06172839506172839,0,0,0.06172839506172839,70.24691358024691,0)" xlink:href="#aB"/><use transform="matrix(0.06172839506172839,0,0,0.06172839506172839,82.5925925925926,0)" xlink:href="#aC"/></g><g id="R"><use transform="matrix(0.06172839506172839,0,0,0.06172839506172839,0,0)" xlink:href="#aG"/><use transform="matrix(0.06172839506172839,0,0,0.06172839506172839,12.345679012345679,0)" xlink:href="#aA"/></g><g id="S"><use transform="matrix(0.06172839506172839,0,0,0.06172839506172839,0,0)" xlink:href="#aH"/><use transform="matrix(0.06172839506172839,0,0,0.06172839506172839,11.11111111111111,0)" xlink:href="#aE"/><use transform="matrix(0.06172839506172839,0,0,0.06172839506172839,23.45679012345679,0)" xlink:href="#aK"/><use transform="matrix(0.06172839506172839,0,0,0.06172839506172839,28.333333333333336,0)" xlink:href="#aE"/><use transform="matrix(0.06172839506172839,0,0,0.06172839506172839,40.67901234567901,0)" xlink:href="#ay"/></g><g id="T"><use transform="matrix(0.06172839506172839,0,0,0.06172839506172839,0,0)" xlink:href="#ax"/><use transform="matrix(0.06172839506172839,0,0,0.06172839506172839,12.345679012345679,0)" xlink:href="#aJ"/><use transform="matrix(0.06172839506172839,0,0,0.06172839506172839,23.45679012345679,0)" xlink:href="#aJ"/><use transform="matrix(0.06172839506172839,0,0,0.06172839506172839,34.5679012345679,0)" xlink:href="#aA"/><use transform="matrix(0.06172839506172839,0,0,0.06172839506172839,39.44444444444444,0)" xlink:href="#aC"/><use transform="matrix(0.06172839506172839,0,0,0.06172839506172839,51.79012345679012,0)" xlink:href="#aB"/></g><g id="U"><use transform="matrix(0.06172839506172839,0,0,0.06172839506172839,0,0)" xlink:href="#ay"/><use transform="matrix(0.06172839506172839,0,0,0.06172839506172839,7.345679012345679,0)" xlink:href="#aE"/><use transform="matrix(0.06172839506172839,0,0,0.06172839506172839,19.691358024691358,0)" xlink:href="#aK"/><use transform="matrix(0.06172839506172839,0,0,0.06172839506172839,24.5679012345679,0)" xlink:href="#aM"/><use transform="matrix(0.06172839506172839,0,0,0.06172839506172839,36.913580246913575,0)" xlink:href="#aJ"/></g><path fill="#333" d="M108 0H70L1-190h34L89-25l56-165h34" id="bG"/><path fill="#333" d="M179-190L93 31C79 59 56 82 12 73V49c39 6 53-20 64-50L1-190h34L92-34l54-156h33" id="bH"/><g id="V"><use transform="matrix(0.05,0,0,0.05,0,0)" xlink:href="#br"/><use transform="matrix(0.05,0,0,0.05,3.95,0)" xlink:href="#bv"/><use transform="matrix(0.05,0,0,0.05,13.949999999999998,0)" xlink:href="#bG"/><use transform="matrix(0.05,0,0,0.05,22.95,0)" xlink:href="#bu"/><use transform="matrix(0.05,0,0,0.05,32.95,0)" xlink:href="#bv"/><use transform="matrix(0.05,0,0,0.05,42.95,0)" xlink:href="#by"/><use transform="matrix(0.05,0,0,0.05,47.95,0)" xlink:href="#bz"/><use transform="matrix(0.05,0,0,0.05,57.95,0)" xlink:href="#bC"/><use transform="matrix(0.05,0,0,0.05,63.900000000000006,0)" xlink:href="#bH"/></g><path fill="#333" d="M24 0v-261h32V0H24" id="bI"/><g id="W"><use transform="matrix(0.05,0,0,0.05,0,0)" xlink:href="#bD"/><use transform="matrix(0.05,0,0,0.05,9,0)" xlink:href="#bz"/><use transform="matrix(0.05,0,0,0.05,19,0)" xlink:href="#bv"/><use transform="matrix(0.05,0,0,0.05,29,0)" xlink:href="#by"/><use transform="matrix(0.05,0,0,0.05,34,0)" xlink:href="#bC"/><use transform="matrix(0.05,0,0,0.05,39.95,0)" xlink:href="#bz"/><use transform="matrix(0.05,0,0,0.05,49.95,0)" xlink:href="#bI"/></g><path fill="#333" d="M101-234c-31-9-42 10-38 44h38v23H63V0H32v-167H5v-23h27c-7-52 17-82 69-68v24" id="bJ"/><g id="X"><use transform="matrix(0.05,0,0,0.05,0,0)" xlink:href="#br"/><use transform="matrix(0.05,0,0,0.05,3.95,0)" xlink:href="#bJ"/></g><path fill="#333" d="M210-169c-67 3-38 105-44 169h-31v-121c0-29-5-50-35-48C34-165 62-65 56 0H25l-1-190h30c1 10-1 24 2 32 10-44 99-50 107 0 11-21 27-35 58-36 85-2 47 119 55 194h-31v-121c0-29-5-49-35-48" id="bK"/><g id="Y"><use transform="matrix(0.05,0,0,0.05,0,0)" xlink:href="#bs"/><use transform="matrix(0.05,0,0,0.05,9,0)" xlink:href="#bz"/><use transform="matrix(0.05,0,0,0.05,19,0)" xlink:href="#bK"/><use transform="matrix(0.05,0,0,0.05,33.95,0)" xlink:href="#bu"/></g><path fill="#333" d="M30-248c87 1 191-15 191 75 0 78-77 80-158 76V0H30v-248zm33 125c57 0 124 11 124-50 0-59-68-47-124-48v98" id="bL"/><path fill="#333" d="M85-194c31 0 48 13 60 33l-1-100h32l1 261h-30c-2-10 0-23-3-31C134-8 116 4 85 4 32 4 16-35 15-94c0-66 23-100 70-100zm9 24c-40 0-46 34-46 75 0 40 6 74 45 74 42 0 51-32 51-76 0-42-9-74-50-73" id="bM"/><g id="Z"><use transform="matrix(0.05,0,0,0.05,0,0)" xlink:href="#bL"/><use transform="matrix(0.05,0,0,0.05,12,0)" xlink:href="#bC"/><use transform="matrix(0.05,0,0,0.05,17.95,0)" xlink:href="#bz"/><use transform="matrix(0.05,0,0,0.05,27.950000000000003,0)" xlink:href="#bM"/><use transform="matrix(0.05,0,0,0.05,37.95,0)" xlink:href="#bB"/><use transform="matrix(0.05,0,0,0.05,47.95,0)" xlink:href="#bD"/><use transform="matrix(0.05,0,0,0.05,56.95,0)" xlink:href="#by"/><use transform="matrix(0.05,0,0,0.05,61.95,0)" xlink:href="#bs"/></g><path fill="#333" d="M206 0h-36l-40-164L89 0H53L-1-190h32L70-26l43-164h34l41 164 42-164h31" id="bN"/><g id="aa"><use transform="matrix(0.05,0,0,0.05,0,0)" xlink:href="#bN"/><use transform="matrix(0.05,0,0,0.05,12.950000000000001,0)" xlink:href="#bu"/><use transform="matrix(0.05,0,0,0.05,22.950000000000003,0)" xlink:href="#bv"/><use transform="matrix(0.05,0,0,0.05,32.95,0)" xlink:href="#by"/></g><g id="ab"><use transform="matrix(0.05,0,0,0.05,0,0)" xlink:href="#bK"/><use transform="matrix(0.05,0,0,0.05,14.950000000000001,0)" xlink:href="#br"/><use transform="matrix(0.05,0,0,0.05,18.900000000000002,0)" xlink:href="#bs"/><use transform="matrix(0.05,0,0,0.05,27.900000000000002,0)" xlink:href="#bs"/><use transform="matrix(0.05,0,0,0.05,36.900000000000006,0)" xlink:href="#br"/><use transform="matrix(0.05,0,0,0.05,40.85000000000001,0)" xlink:href="#bv"/><use transform="matrix(0.05,0,0,0.05,50.85000000000001,0)" xlink:href="#bw"/></g></defs></g></svg>